<svg width="500" height="500" viewBox="0 0 500 500" fill="none" xmlns="http://www.w3.org/2000/svg">
<path fill-rule="evenodd" clip-rule="evenodd" d="M250.001 124.439H250V125L250 500C388.071 500 500 388.071 500 250C500 224.378 496.145 199.656 488.985 176.383C496.061 160.709 500 143.314 500 125C500 55.9644 444.036 0 375 0C306.151 0 250.303 55.6617 250.001 124.439Z" fill="#4F8491"/>
<path fill-rule="evenodd" clip-rule="evenodd" d="M250 500V0C111.929 0 0 111.929 0 250C0 388.071 111.929 500 250 500Z" fill="#265B47"/>
<path fill-rule="evenodd" clip-rule="evenodd" d="M500 250H350C294.791 250 250.032 294.739 250 349.94C250 349.96 250 349.98 250 350L250 500C388.071 500 500 388.071 500 250Z" fill="#E6C4A1"/>
</svg>

